<svg xmlns="http://www.w3.org/2000/svg" viewBox="0 0 1024 256"><defs><style>.a{fill:#422afb;}</style></defs><path class="a" d="M179.562,30A98,98,0,1,0,224.4,215.169L108.806,99.58H137.03L241.447,204A98.006,98.006,0,0,0,179.562,30Zm67.953,97.8a42.4,42.4,0,0,1-27.632,26.405l-26.4-26.4H207.59a14.112,14.112,0,0,0,0-28.224H165.254L137.03,71.356h70.56A42.361,42.361,0,0,1,247.515,127.8Z"/><path d="M330.485,188.5V65.76H383.76q20.195,0,31.163,9.663T425.892,102.5q0,13.755-7.138,22.72t-20.544,12.1q8.879,2.787,14.624,13.406L433.378,188.5H408.83l-21.24-39.172q-3.133-5.745-7.4-7.834a24.733,24.733,0,0,0-10.88-2.09H352.771v49.1Zm22.286-65.635H379.93q24.372,0,24.374-19.847,0-19.672-24.374-19.673H352.771Z"/><path d="M474.987,190.24a36.679,36.679,0,0,1-16.453-3.569,28.434,28.434,0,0,1-11.316-9.662,24.1,24.1,0,0,1-4.091-13.754q0-9.4,4.875-14.886t15.843-7.921q10.966-2.436,29.423-2.437h6.092v-3.657q0-8.7-3.83-12.535t-12.883-3.83a52.279,52.279,0,0,0-14.625,2.177,66.269,66.269,0,0,0-15.146,6.7l-6.268-14.8a49.892,49.892,0,0,1,10.707-5.484,77.24,77.24,0,0,1,13.058-3.656,69.7,69.7,0,0,1,12.971-1.306q18.627,0,27.681,8.618t9.053,26.724V188.5H499.709v-13.58a23.768,23.768,0,0,1-9.4,11.229A27.99,27.99,0,0,1,474.987,190.24Zm4.527-14.972a18.811,18.811,0,0,0,14.188-5.919,20.8,20.8,0,0,0,5.658-14.973v-3.83h-5.919q-16.367,0-22.719,2.524t-6.355,9.14a12.146,12.146,0,0,0,4,9.4Q472.375,175.268,479.514,175.268Z"/><path d="M542.188,188.5V103.365h21.241v14.973q6.266-15.147,26.81-16.714l6.616-.522,1.393,18.455-12.535,1.218q-21.414,2.09-21.414,21.936V188.5Z"/><path d="M651,190.24q-14.454,0-24.9-5.4A38.343,38.343,0,0,1,610,169.522q-5.659-9.922-5.658-23.5,0-13.23,5.483-23.156a40.309,40.309,0,0,1,15.147-15.582A42.782,42.782,0,0,1,647,101.624q18.105,0,28.64,11.49t10.533,31.338v6.442H625.234q2.436,22.81,26.115,22.806a48.644,48.644,0,0,0,14.276-2.176,39.227,39.227,0,0,0,13.058-6.877l6.092,14.624a45.454,45.454,0,0,1-15.32,8.009A60.14,60.14,0,0,1,651,190.24Zm-3.134-73.817q-9.577,0-15.5,5.919t-7.138,16.017h42.828q-.7-10.617-5.833-16.278T647.867,116.423Z"/><path d="M734.565,190.24a75.222,75.222,0,0,1-20.2-2.611,44.731,44.731,0,0,1-15.668-7.486l5.57-14.277a51.48,51.48,0,0,0,14.451,6.7,56.618,56.618,0,0,0,16.017,2.35q8.358,0,12.448-2.872a8.85,8.85,0,0,0,4.091-7.573q0-7.312-10.794-9.4l-17.41-3.307q-22.112-4.179-22.11-22.982a23.257,23.257,0,0,1,4.613-14.45,29.435,29.435,0,0,1,12.8-9.4,49.907,49.907,0,0,1,18.8-3.308,59.98,59.98,0,0,1,17.409,2.524,39.147,39.147,0,0,1,14.276,7.574L762.944,126a38.56,38.56,0,0,0-12.1-6.616,41.294,41.294,0,0,0-13.492-2.437q-8.533,0-12.623,2.959a9.223,9.223,0,0,0-4.091,7.835q0,7.664,9.924,9.4l17.41,3.307q11.314,2.09,17.148,7.66t5.832,14.973q0,12.711-9.923,19.934T734.565,190.24Z"/><path d="M826.49,190.24q-33.777,0-33.775-33.427V119.73H776.35V103.365h16.365V77.947h21.763v25.418h25.766V119.73H814.478V155.6q0,8.357,3.656,12.535t11.838,4.178a22.109,22.109,0,0,0,5.049-.61q2.611-.607,5.4-1.305l3.308,16.017a29.2,29.2,0,0,1-7.921,2.785A43.638,43.638,0,0,1,826.49,190.24Z"/><path d="M892.3,190.24q-13.233,0-22.982-5.4a37.577,37.577,0,0,1-15.146-15.408q-5.4-10.008-5.4-23.59t5.4-23.5a37.748,37.748,0,0,1,15.146-15.321q9.749-5.394,22.982-5.4t22.98,5.4a37.775,37.775,0,0,1,15.147,15.321q5.394,9.924,5.4,23.5t-5.4,23.59a37.6,37.6,0,0,1-15.147,15.408Q905.529,190.242,892.3,190.24Zm0-16.54a19.446,19.446,0,0,0,15.669-7.05q5.916-7.052,5.919-20.805,0-13.926-5.919-20.8T892.3,118.163q-9.753,0-15.669,6.877t-5.92,20.8q0,13.756,5.92,20.805A19.435,19.435,0,0,0,892.3,173.7Z"/></svg>