<svg xmlns="http://www.w3.org/2000/svg" viewBox="0 0 1024 1024"><defs><style>.a{fill:#422afb;}</style></defs><path class="a" d="M512,86C276.729,86,86,276.729,86,512S276.729,938,512,938a424.241,424.241,0,0,0,194.886-47.082L204.428,388.46H327.116L781.01,842.354C876.81,764.226,938,645.253,938,512,938,276.729,747.271,86,512,86ZM807.388,511.148A184.318,184.318,0,0,1,687.274,625.929L572.492,511.148h61.344a61.344,61.344,0,0,0,0-122.688H449.8L327.116,265.772h306.72A184.141,184.141,0,0,1,807.388,511.148Z"/></svg>