<svg xmlns="http://www.w3.org/2000/svg" viewBox="0 0 1024 256"><defs><style>.a{fill:#fff;}</style></defs><path class="a" d="M106.225,209.108V44.558h71.421q27.073,0,41.78,12.954t14.705,36.294q0,18.441-9.57,30.46T197.02,140.487q11.9,3.737,19.6,17.972l27.543,50.649h-32.91l-28.477-52.516q-4.2-7.7-9.92-10.5t-14.588-2.8H136.1v65.82ZM136.1,121.114h36.41q32.674,0,32.677-26.608,0-26.373-32.677-26.375H136.1Z"/><path class="a" d="M299.951,211.442a49.16,49.16,0,0,1-22.056-4.785A38.1,38.1,0,0,1,262.723,193.7a32.3,32.3,0,0,1-5.485-18.438q0-12.6,6.535-19.956t21.241-10.621q14.7-3.265,39.445-3.267h8.17v-4.9q0-11.67-5.135-16.806t-17.273-5.135a70.071,70.071,0,0,0-19.606,2.918,88.834,88.834,0,0,0-20.306,8.985l-8.4-19.838a66.932,66.932,0,0,1,14.354-7.353,103.255,103.255,0,0,1,17.506-4.9,93.4,93.4,0,0,1,17.388-1.751q24.974,0,37.112,11.553T360.4,140.021v69.087H333.1V190.9a31.862,31.862,0,0,1-12.606,15.055Q311.853,211.438,299.951,211.442Zm6.069-20.073a25.218,25.218,0,0,0,19.023-7.935q7.582-7.932,7.586-20.073v-5.135h-7.936q-21.943,0-30.461,3.384t-8.519,12.254a16.286,16.286,0,0,0,5.369,12.6Q296.449,191.369,306.02,191.369Z"/><path class="a" d="M390.045,209.108V94.973h28.476v20.073q8.4-20.307,35.946-22.407l8.869-.7L465.2,116.68,448.4,118.313q-28.707,2.8-28.708,29.41v61.385Z"/><path class="a" d="M535.924,211.442q-19.374,0-33.377-7.235a51.411,51.411,0,0,1-21.59-20.54q-7.588-13.3-7.586-31.51,0-17.734,7.354-31.043a54.023,54.023,0,0,1,20.306-20.889,57.344,57.344,0,0,1,29.526-7.586q24.272,0,38.394,15.405t14.121,42.013v8.635H501.381q3.267,30.581,35.01,30.577a65.289,65.289,0,0,0,19.14-2.917,52.619,52.619,0,0,0,17.506-9.22l8.168,19.606a61.023,61.023,0,0,1-20.539,10.737A80.7,80.7,0,0,1,535.924,211.442Zm-4.2-98.963q-12.838,0-20.772,7.935t-9.57,21.474H558.8q-.937-14.235-7.82-21.824T531.723,112.479Z"/><path class="a" d="M647.957,211.442a100.779,100.779,0,0,1-27.074-3.5,59.962,59.962,0,0,1-21.008-10.036l7.471-19.139a69.025,69.025,0,0,0,19.371,8.986,75.9,75.9,0,0,0,21.474,3.15q11.2,0,16.688-3.85a11.868,11.868,0,0,0,5.486-10.154q0-9.8-14.472-12.6l-23.34-4.436q-29.646-5.6-29.643-30.809a31.169,31.169,0,0,1,6.186-19.372A39.448,39.448,0,0,1,626.25,97.073a66.9,66.9,0,0,1,25.209-4.434,80.394,80.394,0,0,1,23.34,3.384,52.462,52.462,0,0,1,19.139,10.154L686,125.315a51.68,51.68,0,0,0-16.221-8.869,55.379,55.379,0,0,0-18.09-3.267q-11.437,0-16.921,3.967a12.359,12.359,0,0,0-5.485,10.5q0,10.275,13.305,12.6l23.34,4.434q15.17,2.8,22.99,10.27t7.818,20.073q0,17.041-13.3,26.725T647.957,211.442Z"/><path class="a" d="M771.2,211.442q-45.283,0-45.281-44.813V116.913H703.977V94.973h21.939V60.9h29.176V94.973h34.545v21.94H755.092V165q0,11.2,4.9,16.805t15.871,5.6a29.651,29.651,0,0,0,6.77-.816q3.5-.816,7.234-1.751l4.436,21.474a39.154,39.154,0,0,1-10.621,3.734A58.506,58.506,0,0,1,771.2,211.442Z"/><path class="a" d="M859.424,211.442q-17.742,0-30.811-7.235a50.368,50.368,0,0,1-20.3-20.656q-7.24-13.42-7.237-31.627t7.237-31.51a50.588,50.588,0,0,1,20.3-20.54q13.069-7.231,30.811-7.235t30.808,7.235a50.632,50.632,0,0,1,20.307,20.54q7.233,13.3,7.236,31.51t-7.236,31.627a50.412,50.412,0,0,1-20.307,20.656Q877.161,211.445,859.424,211.442Zm0-22.173q13.069,0,21.006-9.453t7.935-27.892q0-18.671-7.935-27.892t-21.006-9.22q-13.075,0-21.006,9.22t-7.938,27.892q0,18.441,7.938,27.892T859.424,189.269Z"/></svg>